<svg xmlns="http://www.w3.org/2000/svg" width="512" height="512" viewBox="0 0 512 512">
  <!-- Fundo circular azul com gradiente -->
  <circle cx="256" cy="256" r="250" fill="url(#gradient)" />
  
  <!-- Silhueta de pessoa em branco transparente -->
  <path d="M256 120c-33.1 0-60 26.9-60 60s26.9 60 60 60 60-26.9 60-60-26.9-60-60-60zm0 90c-16.5 0-30-13.5-30-30s13.5-30 30-30 30 13.5 30 30-13.5 30-30 30z" fill="#FFFFFF" fill-opacity="0.9"/>
  <path d="M366 340c-11.1-16.7-25.7-30.6-43.2-41.1-2.5-1.5-5.5-1.5-8 0.1-16.5 10.2-35 15.7-54 16-19-0.3-37.5-5.8-54-16-2.5-1.6-5.5-1.6-8-0.1-17.5 10.5-32.1 24.4-43.2 41.1-11.1 16.7-17.1 35.9-17.8 56H384c-0.9-20.1-6.9-39.3-18-56z" fill="#FFFFFF" fill-opacity="0.9"/>
  
  <!-- Texto "T" grande no centro -->
  <text x="256" y="370" font-family="Arial, sans-serif" font-size="280" text-anchor="middle" fill="#FFFFFF" font-weight="bold">T</text>
  
  <!-- Definição do gradiente azul -->
  <defs>
    <linearGradient id="gradient" x1="0%" y1="0%" x2="100%" y2="100%">
      <stop offset="0%" stop-color="#2563EB" />
      <stop offset="100%" stop-color="#1E40AF" />
    </linearGradient>
  </defs>
</svg> 